<svg width="30" height="34" viewBox="0 0 30 34" fill="none" xmlns="http://www.w3.org/2000/svg">
<path fill-rule="evenodd" clip-rule="evenodd" d="M0.75 8.24999C0.75 7.42156 1.42157 6.74999 2.25 6.74999H28.5C29.3284 6.74999 30 7.42156 30 8.24999C30 9.07842 29.3284 9.74999 28.5 9.74999H2.25C1.42157 9.74999 0.75 9.07842 0.75 8.24999Z" fill="#C2453D"/>
<path fill-rule="evenodd" clip-rule="evenodd" d="M5.16667 6.74999C5.99509 6.74999 6.66667 7.42156 6.66667 8.24999V28.6667C6.66667 28.908 6.80243 29.2749 7.13878 29.6112C7.47514 29.9476 7.84201 30.0833 8.08333 30.0833H22.6667C22.908 30.0833 23.2749 29.9476 23.6112 29.6112C23.9476 29.2749 24.0833 28.908 24.0833 28.6667V8.24999C24.0833 7.42156 24.7549 6.74999 25.5833 6.74999C26.4118 6.74999 27.0833 7.42156 27.0833 8.24999V28.6667C27.0833 29.8837 26.4899 30.9751 25.7325 31.7325C24.9751 32.4899 23.8837 33.0833 22.6667 33.0833H8.08333C6.86632 33.0833 5.77486 32.4899 5.01746 31.7325C4.26007 30.9751 3.66667 29.8837 3.66667 28.6667V8.24999C3.66667 7.42156 4.33824 6.74999 5.16667 6.74999Z" fill="#C2453D"/>
<path fill-rule="evenodd" clip-rule="evenodd" d="M11.5138 4.38877C11.1774 4.72513 11.0417 5.092 11.0417 5.33332V8.24999C11.0417 9.07842 10.3701 9.74999 9.54167 9.74999C8.71324 9.74999 8.04167 9.07842 8.04167 8.24999V5.33332C8.04167 4.11631 8.63507 3.02485 9.39247 2.26745C10.1499 1.51006 11.2413 0.916656 12.4583 0.916656H18.2917C19.5087 0.916656 20.6001 1.51006 21.3575 2.26745C22.1149 3.02485 22.7083 4.11631 22.7083 5.33332V8.24999C22.7083 9.07842 22.0368 9.74999 21.2083 9.74999C20.3799 9.74999 19.7083 9.07842 19.7083 8.24999V5.33332C19.7083 5.092 19.5726 4.72513 19.2362 4.38877C18.8999 4.05242 18.533 3.91666 18.2917 3.91666H12.4583C12.217 3.91666 11.8501 4.05242 11.5138 4.38877Z" fill="#C2453D"/>
<path fill-rule="evenodd" clip-rule="evenodd" d="M12.4583 14.0417C13.2868 14.0417 13.9583 14.7132 13.9583 15.5417V24.2917C13.9583 25.1201 13.2868 25.7917 12.4583 25.7917C11.6299 25.7917 10.9583 25.1201 10.9583 24.2917V15.5417C10.9583 14.7132 11.6299 14.0417 12.4583 14.0417Z" fill="#C2453D"/>
<path fill-rule="evenodd" clip-rule="evenodd" d="M18.2917 14.0417C19.1201 14.0417 19.7917 14.7132 19.7917 15.5417V24.2917C19.7917 25.1201 19.1201 25.7917 18.2917 25.7917C17.4632 25.7917 16.7917 25.1201 16.7917 24.2917V15.5417C16.7917 14.7132 17.4632 14.0417 18.2917 14.0417Z" fill="#C2453D"/>
</svg>
