<svg width="33" height="34" viewBox="0 0 33 34" fill="none" xmlns="http://www.w3.org/2000/svg">
<path fill-rule="evenodd" clip-rule="evenodd" d="M28.0668 4.09239C27.7224 3.95829 27.3532 3.89678 26.983 3.91206C26.6128 3.92733 26.2503 4.01903 25.9185 4.18092C25.5868 4.34279 25.2934 4.57114 25.0568 4.8508C25.0299 4.88253 25.0018 4.91313 24.9724 4.94251L5.56655 24.3483L4.17455 29.4524L9.27856 28.0604L28.6844 8.65453C28.7187 8.6202 28.7547 8.58755 28.7922 8.55671C29.0761 8.3232 29.3072 8.03411 29.4713 7.70829C29.6354 7.38251 29.7291 7.02684 29.7469 6.6639C29.7647 6.30096 29.7061 5.93812 29.5747 5.59838C29.4433 5.2586 29.2418 4.94897 28.9823 4.68952C28.7229 4.43005 28.4112 4.22648 28.0668 4.09239ZM26.8594 0.914609C27.6428 0.882281 28.4247 1.01236 29.1553 1.29683C29.8859 1.5813 30.5495 2.01408 31.1037 2.5682C31.6578 3.12235 32.0902 3.7857 32.3728 4.51628C32.6553 5.2469 32.7816 6.02831 32.7433 6.81058C32.705 7.59286 32.503 8.35824 32.1506 9.0579C31.8099 9.73417 31.3361 10.3344 30.7582 10.8234L11.1182 30.4633C10.9336 30.6479 10.7041 30.7812 10.4522 30.8498L2.43139 33.0373C1.91207 33.179 1.35668 33.0315 0.976057 32.6508C0.595432 32.2702 0.447939 31.7148 0.589571 31.1955L2.77707 23.1747C2.84576 22.9228 2.97897 22.6933 3.16356 22.5087L22.8104 2.86188C23.3087 2.28708 23.9185 1.81875 24.6029 1.48478C25.3074 1.14099 26.0759 0.946937 26.8594 0.914609Z" fill="#333333"/>
<path fill-rule="evenodd" clip-rule="evenodd" d="M19.9344 5.73786C20.5202 5.15207 21.4699 5.15207 22.0557 5.73786L27.889 11.5712C28.4748 12.157 28.4748 13.1067 27.889 13.6925C27.3033 14.2783 26.3535 14.2783 25.7677 13.6925L19.9344 7.85918C19.3486 7.27339 19.3486 6.32365 19.9344 5.73786Z" fill="#333333"/>
</svg>
