<svg width="28" height="29" viewBox="0 0 28 29" fill="none" xmlns="http://www.w3.org/2000/svg">
<path fill-rule="evenodd" clip-rule="evenodd" d="M14 3.79907C7.92487 3.79907 3 8.72394 3 14.7991C3 20.8742 7.92487 25.7991 14 25.7991C20.0751 25.7991 25 20.8742 25 14.7991C25 8.72394 20.0751 3.79907 14 3.79907ZM0 14.7991C0 7.06709 6.26801 0.799072 14 0.799072C21.732 0.799072 28 7.06709 28 14.7991C28 22.5311 21.732 28.7991 14 28.7991C6.26801 28.7991 0 22.5311 0 14.7991Z" fill="#6C92CB"/>
<path fill-rule="evenodd" clip-rule="evenodd" d="M14 13.2991C14.8284 13.2991 15.5 13.9706 15.5 14.7991V19.7991C15.5 20.6275 14.8284 21.2991 14 21.2991C13.1716 21.2991 12.5 20.6275 12.5 19.7991V14.7991C12.5 13.9706 13.1716 13.2991 14 13.2991Z" fill="#6C92CB"/>
<path fill-rule="evenodd" clip-rule="evenodd" d="M12.5 9.79907C12.5 8.97065 13.1716 8.29907 14 8.29907H14.0115C14.84 8.29907 15.5115 8.97065 15.5115 9.79907C15.5115 10.6275 14.84 11.2991 14.0115 11.2991H14C13.1716 11.2991 12.5 10.6275 12.5 9.79907Z" fill="#6C92CB"/>
</svg>
